<svg width="300" height="300" viewBox="0 0 300 300" fill="none" xmlns="http://www.w3.org/2000/svg">
<circle cx="150" cy="150" r="150" fill="#EFDFED"/>
<circle cx="150" cy="150" r="77.7202" fill="white"/>
<path d="M130.418 151.391C130.418 150.254 130.494 149.129 130.646 148.016C130.811 146.891 131.057 145.818 131.385 144.799C131.725 143.779 132.152 142.836 132.668 141.969C133.195 141.102 133.828 140.352 134.566 139.719C135.316 139.086 136.172 138.588 137.133 138.225C138.105 137.861 139.201 137.68 140.42 137.68C141.299 137.68 142.119 137.785 142.881 137.996C143.643 138.195 144.334 138.477 144.955 138.84C145.588 139.191 146.15 139.613 146.643 140.105C147.135 140.598 147.557 141.131 147.908 141.705L144.885 142.654C143.76 141.037 142.271 140.229 140.42 140.229C139.213 140.229 138.176 140.516 137.309 141.09C136.453 141.664 135.744 142.426 135.182 143.375C134.619 144.312 134.197 145.391 133.916 146.609C133.646 147.816 133.5 149.064 133.477 150.354H133.547C133.758 149.92 134.068 149.492 134.479 149.07C134.9 148.648 135.398 148.268 135.973 147.928C136.559 147.588 137.215 147.312 137.941 147.102C138.68 146.891 139.471 146.785 140.314 146.785C141.51 146.785 142.605 146.996 143.602 147.418C144.609 147.828 145.477 148.402 146.203 149.141C146.941 149.879 147.51 150.752 147.908 151.76C148.318 152.768 148.523 153.857 148.523 155.029C148.523 156.236 148.307 157.367 147.873 158.422C147.451 159.465 146.854 160.373 146.08 161.146C145.318 161.92 144.404 162.529 143.338 162.975C142.271 163.42 141.105 163.643 139.84 163.643C138.504 163.643 137.262 163.391 136.113 162.887C134.965 162.383 133.969 161.639 133.125 160.654C132.281 159.67 131.619 158.457 131.139 157.016C130.658 155.562 130.418 153.893 130.418 152.006V151.391ZM134.021 155.135C134.021 156.014 134.162 156.816 134.443 157.543C134.736 158.258 135.135 158.879 135.639 159.406C136.143 159.922 136.74 160.326 137.432 160.619C138.135 160.9 138.902 161.041 139.734 161.041C140.543 161.041 141.293 160.906 141.984 160.637C142.676 160.355 143.273 159.963 143.777 159.459C144.281 158.955 144.674 158.346 144.955 157.631C145.248 156.916 145.395 156.119 145.395 155.24C145.395 154.35 145.254 153.547 144.973 152.832C144.691 152.105 144.299 151.49 143.795 150.986C143.291 150.471 142.687 150.078 141.984 149.809C141.293 149.527 140.531 149.387 139.699 149.387C138.867 149.387 138.1 149.527 137.396 149.809C136.705 150.078 136.107 150.465 135.604 150.969C135.1 151.473 134.707 152.082 134.426 152.797C134.156 153.5 134.021 154.279 134.021 155.135ZM153.111 150.424L154.43 138.031H168.826V140.738H156.926L156.17 147.91C156.85 147.254 157.664 146.762 158.613 146.434C159.562 146.094 160.535 145.924 161.531 145.924C162.727 145.924 163.828 146.146 164.836 146.592C165.855 147.025 166.734 147.629 167.473 148.402C168.223 149.176 168.803 150.09 169.213 151.145C169.635 152.199 169.846 153.336 169.846 154.555C169.846 155.914 169.623 157.15 169.178 158.264C168.744 159.377 168.129 160.332 167.332 161.129C166.535 161.914 165.586 162.523 164.484 162.957C163.383 163.379 162.17 163.59 160.846 163.59C159.803 163.59 158.812 163.473 157.875 163.238C156.949 162.992 156.111 162.629 155.361 162.148C154.611 161.656 153.967 161.053 153.428 160.338C152.9 159.611 152.525 158.768 152.303 157.807L155.379 157.156C155.508 157.66 155.725 158.141 156.029 158.598C156.334 159.043 156.721 159.441 157.189 159.793C157.658 160.133 158.197 160.402 158.807 160.602C159.416 160.801 160.096 160.9 160.846 160.9C161.748 160.9 162.557 160.748 163.271 160.443C163.986 160.139 164.59 159.717 165.082 159.178C165.574 158.627 165.949 157.977 166.207 157.227C166.477 156.477 166.611 155.662 166.611 154.783C166.611 153.869 166.477 153.037 166.207 152.287C165.949 151.537 165.568 150.893 165.064 150.354C164.572 149.803 163.969 149.381 163.254 149.088C162.539 148.783 161.725 148.631 160.811 148.631C160.377 148.631 159.932 148.684 159.475 148.789C159.029 148.895 158.596 149.041 158.174 149.229C157.764 149.416 157.377 149.645 157.014 149.914C156.65 150.184 156.34 150.482 156.082 150.811L153.111 150.424Z" fill="#0B0C0C"/>
</svg>
