<svg width="300" height="300" viewBox="0 0 300 300" fill="none" xmlns="http://www.w3.org/2000/svg">
<circle cx="150" cy="150" r="150" fill="#FFF7BF"/>
<circle cx="150" cy="150" r="77.7202" fill="white"/>
<path d="M141.053 151.391C141.053 150.254 141.129 149.129 141.281 148.016C141.445 146.891 141.691 145.818 142.02 144.799C142.359 143.779 142.787 142.836 143.303 141.969C143.83 141.102 144.463 140.352 145.201 139.719C145.951 139.086 146.807 138.588 147.768 138.225C148.74 137.861 149.836 137.68 151.055 137.68C151.934 137.68 152.754 137.785 153.516 137.996C154.277 138.195 154.969 138.477 155.59 138.84C156.223 139.191 156.785 139.613 157.277 140.105C157.77 140.598 158.191 141.131 158.543 141.705L155.52 142.654C154.395 141.037 152.906 140.229 151.055 140.229C149.848 140.229 148.811 140.516 147.943 141.09C147.088 141.664 146.379 142.426 145.816 143.375C145.254 144.312 144.832 145.391 144.551 146.609C144.281 147.816 144.135 149.064 144.111 150.354H144.182C144.393 149.92 144.703 149.492 145.113 149.07C145.535 148.648 146.033 148.268 146.607 147.928C147.193 147.588 147.85 147.312 148.576 147.102C149.314 146.891 150.105 146.785 150.949 146.785C152.145 146.785 153.24 146.996 154.236 147.418C155.244 147.828 156.111 148.402 156.838 149.141C157.576 149.879 158.145 150.752 158.543 151.76C158.953 152.768 159.158 153.857 159.158 155.029C159.158 156.236 158.941 157.367 158.508 158.422C158.086 159.465 157.488 160.373 156.715 161.146C155.953 161.92 155.039 162.529 153.973 162.975C152.906 163.42 151.74 163.643 150.475 163.643C149.139 163.643 147.896 163.391 146.748 162.887C145.6 162.383 144.604 161.639 143.76 160.654C142.916 159.67 142.254 158.457 141.773 157.016C141.293 155.562 141.053 153.893 141.053 152.006V151.391ZM144.656 155.135C144.656 156.014 144.797 156.816 145.078 157.543C145.371 158.258 145.77 158.879 146.273 159.406C146.777 159.922 147.375 160.326 148.066 160.619C148.77 160.9 149.537 161.041 150.369 161.041C151.178 161.041 151.928 160.906 152.619 160.637C153.311 160.355 153.908 159.963 154.412 159.459C154.916 158.955 155.309 158.346 155.59 157.631C155.883 156.916 156.029 156.119 156.029 155.24C156.029 154.35 155.889 153.547 155.607 152.832C155.326 152.105 154.934 151.49 154.43 150.986C153.926 150.471 153.322 150.078 152.619 149.809C151.928 149.527 151.166 149.387 150.334 149.387C149.502 149.387 148.734 149.527 148.031 149.809C147.34 150.078 146.742 150.465 146.238 150.969C145.734 151.473 145.342 152.082 145.061 152.797C144.791 153.5 144.656 154.279 144.656 155.135Z" fill="#0B0C0C"/>
</svg>
