<svg width="300" height="300" viewBox="0 0 300 300" fill="none" xmlns="http://www.w3.org/2000/svg">
<circle cx="150" cy="150" r="150" fill="#BBD4EA"/>
<circle cx="150" cy="150.001" r="77.7202" fill="white"/>
<path d="M134.76 142.109C135.58 142.109 136.248 142.045 136.764 141.916C137.279 141.775 137.678 141.559 137.959 141.266C138.24 140.973 138.428 140.598 138.521 140.141C138.627 139.672 138.68 139.104 138.68 138.436V138.031H141.668V163.238H138.574V144.729H133.67V142.109H134.76ZM150.562 156.787C151.043 157.994 151.775 158.984 152.76 159.758C153.744 160.52 155.051 160.9 156.68 160.9C157.57 160.9 158.35 160.783 159.018 160.549C159.697 160.303 160.266 159.969 160.723 159.547C161.18 159.125 161.52 158.639 161.742 158.088C161.977 157.537 162.094 156.939 162.094 156.295C162.094 154.877 161.537 153.781 160.424 153.008C159.322 152.223 157.898 151.83 156.152 151.83H155.062V149.123H156.047C157.008 149.123 157.84 148.994 158.543 148.736C159.246 148.467 159.832 148.115 160.301 147.682C160.77 147.248 161.115 146.762 161.338 146.223C161.572 145.684 161.689 145.139 161.689 144.588C161.689 144.061 161.578 143.545 161.355 143.041C161.145 142.537 160.834 142.086 160.424 141.688C160.025 141.289 159.51 140.979 158.877 140.756C158.256 140.533 157.553 140.422 156.768 140.422C155.373 140.422 154.189 140.779 153.217 141.494C152.244 142.209 151.529 143.1 151.072 144.166L148.488 142.9C149.203 141.248 150.299 139.971 151.775 139.068C153.252 138.166 154.916 137.715 156.768 137.715C157.939 137.715 159.018 137.885 160.002 138.225C160.986 138.553 161.836 139.027 162.551 139.648C163.277 140.258 163.84 140.979 164.238 141.811C164.648 142.631 164.854 143.521 164.854 144.482C164.854 145.256 164.73 145.959 164.484 146.592C164.25 147.225 163.922 147.793 163.5 148.297C163.09 148.801 162.592 149.223 162.006 149.562C161.432 149.891 160.822 150.119 160.178 150.248C160.928 150.365 161.619 150.605 162.252 150.969C162.885 151.32 163.43 151.76 163.887 152.287C164.344 152.814 164.701 153.424 164.959 154.115C165.229 154.795 165.363 155.51 165.363 156.26C165.363 157.455 165.129 158.51 164.66 159.424C164.191 160.338 163.553 161.105 162.744 161.727C161.947 162.348 161.027 162.816 159.984 163.133C158.941 163.438 157.84 163.59 156.68 163.59C154.617 163.59 152.771 163.115 151.143 162.166C149.514 161.205 148.359 159.834 147.68 158.053L150.562 156.787Z" fill="#0B0C0C"/>
</svg>
