<svg width="300" height="300" viewBox="0 0 300 300" fill="none" xmlns="http://www.w3.org/2000/svg">
<circle cx="150" cy="150" r="150" fill="#E8F1F8"/>
<circle cx="150" cy="150.001" r="77.7202" fill="white"/>
<path d="M133.125 156.787C133.605 157.994 134.338 158.984 135.322 159.758C136.307 160.52 137.613 160.9 139.242 160.9C140.133 160.9 140.912 160.783 141.58 160.549C142.26 160.303 142.828 159.969 143.285 159.547C143.742 159.125 144.082 158.639 144.305 158.088C144.539 157.537 144.656 156.939 144.656 156.295C144.656 154.877 144.1 153.781 142.986 153.008C141.885 152.223 140.461 151.83 138.715 151.83H137.625V149.123H138.609C139.57 149.123 140.402 148.994 141.105 148.736C141.809 148.467 142.395 148.115 142.863 147.682C143.332 147.248 143.678 146.762 143.9 146.223C144.135 145.684 144.252 145.139 144.252 144.588C144.252 144.061 144.141 143.545 143.918 143.041C143.707 142.537 143.396 142.086 142.986 141.688C142.588 141.289 142.072 140.979 141.439 140.756C140.818 140.533 140.115 140.422 139.33 140.422C137.936 140.422 136.752 140.779 135.779 141.494C134.807 142.209 134.092 143.1 133.635 144.166L131.051 142.9C131.766 141.248 132.861 139.971 134.338 139.068C135.814 138.166 137.479 137.715 139.33 137.715C140.502 137.715 141.58 137.885 142.564 138.225C143.549 138.553 144.398 139.027 145.113 139.648C145.84 140.258 146.402 140.979 146.801 141.811C147.211 142.631 147.416 143.521 147.416 144.482C147.416 145.256 147.293 145.959 147.047 146.592C146.812 147.225 146.484 147.793 146.062 148.297C145.652 148.801 145.154 149.223 144.568 149.562C143.994 149.891 143.385 150.119 142.74 150.248C143.49 150.365 144.182 150.605 144.814 150.969C145.447 151.32 145.992 151.76 146.449 152.287C146.906 152.814 147.264 153.424 147.521 154.115C147.791 154.795 147.926 155.51 147.926 156.26C147.926 157.455 147.691 158.51 147.223 159.424C146.754 160.338 146.115 161.105 145.307 161.727C144.51 162.348 143.59 162.816 142.547 163.133C141.504 163.438 140.402 163.59 139.242 163.59C137.18 163.59 135.334 163.115 133.705 162.166C132.076 161.205 130.922 159.834 130.242 158.053L133.125 156.787ZM154.711 156.787C155.191 157.994 155.924 158.984 156.908 159.758C157.893 160.52 159.199 160.9 160.828 160.9C161.719 160.9 162.498 160.783 163.166 160.549C163.846 160.303 164.414 159.969 164.871 159.547C165.328 159.125 165.668 158.639 165.891 158.088C166.125 157.537 166.242 156.939 166.242 156.295C166.242 154.877 165.686 153.781 164.572 153.008C163.471 152.223 162.047 151.83 160.301 151.83H159.211V149.123H160.195C161.156 149.123 161.988 148.994 162.691 148.736C163.395 148.467 163.98 148.115 164.449 147.682C164.918 147.248 165.264 146.762 165.486 146.223C165.721 145.684 165.838 145.139 165.838 144.588C165.838 144.061 165.727 143.545 165.504 143.041C165.293 142.537 164.982 142.086 164.572 141.688C164.174 141.289 163.658 140.979 163.025 140.756C162.404 140.533 161.701 140.422 160.916 140.422C159.521 140.422 158.338 140.779 157.365 141.494C156.393 142.209 155.678 143.1 155.221 144.166L152.637 142.9C153.352 141.248 154.447 139.971 155.924 139.068C157.4 138.166 159.064 137.715 160.916 137.715C162.088 137.715 163.166 137.885 164.15 138.225C165.135 138.553 165.984 139.027 166.699 139.648C167.426 140.258 167.988 140.979 168.387 141.811C168.797 142.631 169.002 143.521 169.002 144.482C169.002 145.256 168.879 145.959 168.633 146.592C168.398 147.225 168.07 147.793 167.648 148.297C167.238 148.801 166.74 149.223 166.154 149.562C165.58 149.891 164.971 150.119 164.326 150.248C165.076 150.365 165.768 150.605 166.4 150.969C167.033 151.32 167.578 151.76 168.035 152.287C168.492 152.814 168.85 153.424 169.107 154.115C169.377 154.795 169.512 155.51 169.512 156.26C169.512 157.455 169.277 158.51 168.809 159.424C168.34 160.338 167.701 161.105 166.893 161.727C166.096 162.348 165.176 162.816 164.133 163.133C163.09 163.438 161.988 163.59 160.828 163.59C158.766 163.59 156.92 163.115 155.291 162.166C153.662 161.205 152.508 159.834 151.828 158.053L154.711 156.787Z" fill="#0B0C0C"/>
</svg>
