<svg width="1220" height="370" viewBox="0 0 1220 370" fill="none" xmlns="http://www.w3.org/2000/svg">
<rect width="1220" height="370" fill="#DEE0E2"/>
<path d="M565.206 165.391H590.823V171.695H581.425V199H574.604V171.695H565.206V165.391ZM610.042 165.391C611.448 165.391 612.753 165.602 613.956 166.023C615.159 166.43 616.206 167.016 617.097 167.781C617.987 168.547 618.682 169.477 619.182 170.57C619.682 171.648 619.932 172.852 619.932 174.18C619.932 174.867 619.831 175.547 619.628 176.219C619.44 176.891 619.159 177.523 618.784 178.117C618.409 178.695 617.956 179.227 617.425 179.711C616.893 180.195 616.292 180.594 615.62 180.906C616.167 181.094 616.8 181.375 617.518 181.75C618.253 182.125 618.948 182.641 619.604 183.297C620.261 183.953 620.815 184.766 621.268 185.734C621.722 186.688 621.948 187.844 621.948 189.203C621.948 190.906 621.62 192.375 620.964 193.609C620.323 194.844 619.448 195.859 618.339 196.656C617.245 197.453 615.956 198.047 614.472 198.438C613.003 198.812 611.448 199 609.807 199H595.089V165.391H610.042ZM614.987 188.969C614.987 188.062 614.823 187.32 614.495 186.742C614.167 186.164 613.729 185.703 613.182 185.359C612.651 185.016 612.042 184.781 611.354 184.656C610.667 184.516 609.964 184.445 609.245 184.445H601.886V193.633H609.245C609.964 193.633 610.667 193.562 611.354 193.422C612.042 193.281 612.651 193.031 613.182 192.672C613.729 192.312 614.167 191.836 614.495 191.242C614.823 190.648 614.987 189.891 614.987 188.969ZM613.089 174.859C613.089 173.578 612.682 172.578 611.87 171.859C611.057 171.141 609.745 170.781 607.932 170.781H601.886V178.703H607.932C609.714 178.703 611.018 178.367 611.847 177.695C612.675 177.008 613.089 176.062 613.089 174.859ZM625.37 182.195C625.37 179.789 625.729 177.539 626.448 175.445C627.182 173.336 628.229 171.508 629.589 169.961C630.948 168.398 632.597 167.172 634.534 166.281C636.472 165.375 638.651 164.922 641.073 164.922C642.823 164.922 644.44 165.148 645.925 165.602C647.425 166.055 648.768 166.695 649.956 167.523C651.159 168.352 652.19 169.352 653.05 170.523C653.909 171.695 654.589 173.008 655.089 174.461L648.55 176.641C648.362 176.016 648.065 175.375 647.659 174.719C647.253 174.047 646.737 173.445 646.112 172.914C645.487 172.367 644.753 171.922 643.909 171.578C643.081 171.234 642.151 171.062 641.12 171.062C639.573 171.062 638.245 171.383 637.136 172.023C636.042 172.648 635.143 173.484 634.44 174.531C633.737 175.562 633.214 176.742 632.87 178.07C632.542 179.383 632.378 180.727 632.378 182.102V182.289C632.378 183.68 632.542 185.039 632.87 186.367C633.214 187.68 633.737 188.852 634.44 189.883C635.143 190.914 636.042 191.75 637.136 192.391C638.245 193.016 639.573 193.328 641.12 193.328C642.151 193.328 643.081 193.156 643.909 192.812C644.753 192.469 645.487 192.031 646.112 191.5C646.737 190.953 647.253 190.352 647.659 189.695C648.065 189.039 648.362 188.398 648.55 187.773L655.089 189.93C654.589 191.383 653.909 192.695 653.05 193.867C652.19 195.039 651.159 196.047 649.956 196.891C648.768 197.719 647.425 198.359 645.925 198.812C644.44 199.25 642.823 199.469 641.073 199.469C638.651 199.469 636.472 199.023 634.534 198.133C632.597 197.242 630.948 196.016 629.589 194.453C628.229 192.891 627.182 191.062 626.448 188.969C625.729 186.875 625.37 184.617 625.37 182.195Z" fill="#979797"/>
</svg>
