<svg width="595" height="270" viewBox="0 0 595 270" fill="none" xmlns="http://www.w3.org/2000/svg">
<rect width="595" height="270" fill="#DEE0E2"/>
<path d="M94.7578 132.195C94.7578 129.789 95.1172 127.539 95.8359 125.445C96.5703 123.336 97.6172 121.508 98.9766 119.961C100.336 118.398 101.984 117.172 103.922 116.281C105.859 115.375 108.039 114.922 110.461 114.922C112.211 114.922 113.828 115.148 115.312 115.602C116.812 116.055 118.156 116.695 119.344 117.523C120.547 118.352 121.578 119.352 122.438 120.523C123.297 121.695 123.977 123.008 124.477 124.461L117.938 126.641C117.75 126.016 117.453 125.375 117.047 124.719C116.641 124.047 116.125 123.445 115.5 122.914C114.875 122.367 114.141 121.922 113.297 121.578C112.469 121.234 111.539 121.062 110.508 121.062C108.961 121.062 107.633 121.383 106.523 122.023C105.43 122.648 104.531 123.484 103.828 124.531C103.125 125.562 102.602 126.742 102.258 128.07C101.93 129.383 101.766 130.727 101.766 132.102V132.289C101.766 133.68 101.93 135.039 102.258 136.367C102.602 137.68 103.125 138.852 103.828 139.883C104.531 140.914 105.43 141.75 106.523 142.391C107.633 143.016 108.961 143.328 110.508 143.328C111.539 143.328 112.469 143.156 113.297 142.812C114.141 142.469 114.875 142.031 115.5 141.5C116.125 140.953 116.641 140.352 117.047 139.695C117.453 139.039 117.75 138.398 117.938 137.773L124.477 139.93C123.977 141.383 123.297 142.695 122.438 143.867C121.578 145.039 120.547 146.047 119.344 146.891C118.156 147.719 116.812 148.359 115.312 148.812C113.828 149.25 112.211 149.469 110.461 149.469C108.039 149.469 105.859 149.023 103.922 148.133C101.984 147.242 100.336 146.016 98.9766 144.453C97.6172 142.891 96.5703 141.062 95.8359 138.969C95.1172 136.875 94.7578 134.617 94.7578 132.195ZM128.672 115.391H135.141V126.055C135.484 125.711 135.867 125.383 136.289 125.07C136.727 124.742 137.203 124.461 137.719 124.227C138.234 123.977 138.805 123.781 139.43 123.641C140.07 123.484 140.773 123.406 141.539 123.406C142.898 123.406 144.117 123.633 145.195 124.086C146.273 124.523 147.18 125.133 147.914 125.914C148.664 126.695 149.234 127.609 149.625 128.656C150.016 129.703 150.211 130.836 150.211 132.055V149H143.742V134.398C143.742 133.508 143.641 132.758 143.438 132.148C143.234 131.523 142.953 131.023 142.594 130.648C142.25 130.258 141.836 129.977 141.352 129.805C140.883 129.617 140.367 129.523 139.805 129.523C139.148 129.523 138.531 129.641 137.953 129.875C137.391 130.109 136.898 130.469 136.477 130.953C136.055 131.422 135.727 132.016 135.492 132.734C135.258 133.453 135.141 134.297 135.141 135.266V149H128.672V115.391ZM163.734 138.805C162.938 138.93 162.297 139.211 161.812 139.648C161.328 140.07 161.086 140.648 161.086 141.383C161.086 142.195 161.383 142.898 161.977 143.492C162.57 144.07 163.445 144.359 164.602 144.359C165.82 144.359 166.781 144.008 167.484 143.305C168.188 142.602 168.539 141.672 168.539 140.516V137.984L163.734 138.805ZM169.594 146.633C169.328 146.93 169 147.25 168.609 147.594C168.234 147.922 167.781 148.227 167.25 148.508C166.734 148.773 166.125 149 165.422 149.188C164.719 149.375 163.93 149.469 163.055 149.469C161.805 149.469 160.648 149.273 159.586 148.883C158.539 148.477 157.617 147.914 156.82 147.195C156.023 146.477 155.398 145.648 154.945 144.711C154.492 143.758 154.266 142.727 154.266 141.617C154.266 139.602 154.891 137.953 156.141 136.672C157.391 135.391 159.117 134.586 161.32 134.258L168.539 133.203V132.734C168.539 131.609 168.195 130.719 167.508 130.062C166.82 129.406 165.703 129.078 164.156 129.078C163.516 129.078 162.867 129.156 162.211 129.312C161.555 129.453 160.922 129.617 160.312 129.805C159.719 129.992 159.164 130.211 158.648 130.461C158.133 130.695 157.68 130.906 157.289 131.094L154.758 126.148C156.195 125.352 157.789 124.695 159.539 124.18C161.305 123.664 163.133 123.406 165.023 123.406C166.18 123.406 167.344 123.531 168.516 123.781C169.703 124.016 170.773 124.453 171.727 125.094C172.695 125.734 173.484 126.609 174.094 127.719C174.703 128.812 175.008 130.211 175.008 131.914V142.227C175.008 142.961 175.195 143.508 175.57 143.867C175.961 144.211 176.492 144.531 177.164 144.828L174.234 149.469C173.047 149.344 172.094 149.039 171.375 148.555C170.656 148.055 170.062 147.414 169.594 146.633ZM194.531 130.18H193.852C192.93 130.18 192.047 130.273 191.203 130.461C190.375 130.648 189.641 130.992 189 131.492C188.359 131.977 187.844 132.648 187.453 133.508C187.078 134.367 186.891 135.469 186.891 136.812V149H180.422V123.898H186.891V126.734C187.156 126.312 187.5 125.906 187.922 125.516C188.344 125.125 188.836 124.781 189.398 124.484C189.961 124.172 190.594 123.922 191.297 123.734C192 123.547 192.758 123.453 193.57 123.453H194.531V130.18ZM207.82 141.523C207.82 141.82 207.859 142.102 207.938 142.367C208.016 142.633 208.148 142.867 208.336 143.07C208.539 143.258 208.82 143.406 209.18 143.516C209.539 143.625 210 143.68 210.562 143.68C210.797 143.68 211.062 143.672 211.359 143.656C211.656 143.625 211.953 143.594 212.25 143.562C212.547 143.531 212.82 143.492 213.07 143.445C213.336 143.398 213.555 143.359 213.727 143.328L214.312 149.047C213.703 149.125 213.07 149.195 212.414 149.258C211.852 149.32 211.227 149.367 210.539 149.398C209.852 149.445 209.156 149.469 208.453 149.469C206.219 149.469 204.477 148.961 203.227 147.945C201.977 146.93 201.352 145.312 201.352 143.094V129.523H196.828V123.898H201.352V116.797L207.82 115.062V123.898H214.406V129.523H207.82V141.523ZM237.234 115.391H243.844L232.102 149H225.469L237.234 115.391ZM272.086 115.391C273.492 115.391 274.797 115.602 276 116.023C277.203 116.43 278.25 117.016 279.141 117.781C280.031 118.547 280.727 119.477 281.227 120.57C281.727 121.648 281.977 122.852 281.977 124.18C281.977 124.867 281.875 125.547 281.672 126.219C281.484 126.891 281.203 127.523 280.828 128.117C280.453 128.695 280 129.227 279.469 129.711C278.938 130.195 278.336 130.594 277.664 130.906C278.211 131.094 278.844 131.375 279.562 131.75C280.297 132.125 280.992 132.641 281.648 133.297C282.305 133.953 282.859 134.766 283.312 135.734C283.766 136.688 283.992 137.844 283.992 139.203C283.992 140.906 283.664 142.375 283.008 143.609C282.367 144.844 281.492 145.859 280.383 146.656C279.289 147.453 278 148.047 276.516 148.438C275.047 148.812 273.492 149 271.852 149H257.133V115.391H272.086ZM277.031 138.969C277.031 138.062 276.867 137.32 276.539 136.742C276.211 136.164 275.773 135.703 275.227 135.359C274.695 135.016 274.086 134.781 273.398 134.656C272.711 134.516 272.008 134.445 271.289 134.445H263.93V143.633H271.289C272.008 143.633 272.711 143.562 273.398 143.422C274.086 143.281 274.695 143.031 275.227 142.672C275.773 142.312 276.211 141.836 276.539 141.242C276.867 140.648 277.031 139.891 277.031 138.969ZM275.133 124.859C275.133 123.578 274.727 122.578 273.914 121.859C273.102 121.141 271.789 120.781 269.977 120.781H263.93V128.703H269.977C271.758 128.703 273.062 128.367 273.891 127.695C274.719 127.008 275.133 126.062 275.133 124.859ZM294.844 149H288.375V123.898H294.844V149ZM287.695 117.312C287.695 116.781 287.797 116.281 288 115.812C288.203 115.328 288.477 114.914 288.82 114.57C289.18 114.211 289.594 113.93 290.062 113.727C290.531 113.523 291.039 113.422 291.586 113.422C292.117 113.422 292.617 113.523 293.086 113.727C293.57 113.93 293.984 114.211 294.328 114.57C294.688 114.914 294.969 115.328 295.172 115.812C295.375 116.281 295.477 116.781 295.477 117.312C295.477 117.859 295.375 118.367 295.172 118.836C294.969 119.305 294.688 119.719 294.328 120.078C293.984 120.422 293.57 120.695 293.086 120.898C292.617 121.102 292.117 121.203 291.586 121.203C291.039 121.203 290.531 121.102 290.062 120.898C289.594 120.695 289.18 120.422 288.82 120.078C288.477 119.719 288.203 119.305 288 118.836C287.797 118.367 287.695 117.859 287.695 117.312ZM315.68 144.547C315.102 145.25 314.289 145.812 313.242 146.234C312.211 146.641 311.086 146.844 309.867 146.844C308.18 146.844 306.68 146.547 305.367 145.953C304.055 145.359 302.945 144.547 302.039 143.516C301.148 142.469 300.461 141.234 299.977 139.812C299.508 138.391 299.273 136.828 299.273 135.125C299.273 133.469 299.508 131.922 299.977 130.484C300.461 129.031 301.148 127.789 302.039 126.758C302.945 125.711 304.055 124.891 305.367 124.297C306.68 123.703 308.18 123.406 309.867 123.406C311.086 123.406 312.211 123.617 313.242 124.039C314.289 124.461 315.102 125.023 315.68 125.727V123.898H322.172V148.766C322.172 150.297 321.883 151.609 321.305 152.703C320.727 153.812 319.93 154.719 318.914 155.422C317.914 156.125 316.75 156.633 315.422 156.945C314.094 157.273 312.68 157.438 311.18 157.438C309.352 157.438 307.445 157.219 305.461 156.781C303.477 156.359 301.766 155.828 300.328 155.188L302.156 149.961C302.594 150.148 303.133 150.352 303.773 150.57C304.414 150.805 305.102 151.008 305.836 151.18C306.57 151.352 307.336 151.492 308.133 151.602C308.945 151.727 309.734 151.789 310.5 151.789C311.172 151.789 311.82 151.719 312.445 151.578C313.07 151.453 313.617 151.234 314.086 150.922C314.57 150.625 314.953 150.227 315.234 149.727C315.531 149.242 315.68 148.617 315.68 147.852V144.547ZM305.93 135.219C305.93 136.047 306.016 136.828 306.188 137.562C306.375 138.281 306.664 138.898 307.055 139.414C307.461 139.914 307.977 140.312 308.602 140.609C309.227 140.891 309.984 141.031 310.875 141.031C312.641 141.031 313.898 140.477 314.648 139.367C315.398 138.242 315.773 136.859 315.773 135.219V135.031C315.773 134.203 315.688 133.43 315.516 132.711C315.344 131.992 315.062 131.375 314.672 130.859C314.281 130.344 313.773 129.945 313.148 129.664C312.539 129.367 311.781 129.219 310.875 129.219C309.125 129.219 307.859 129.773 307.078 130.883C306.312 131.992 305.93 133.375 305.93 135.031V135.219ZM336.422 123.898H342.891V126.055C343.234 125.711 343.617 125.383 344.039 125.07C344.477 124.742 344.953 124.461 345.469 124.227C345.984 123.977 346.555 123.781 347.18 123.641C347.82 123.484 348.523 123.406 349.289 123.406C350.648 123.406 351.867 123.633 352.945 124.086C354.023 124.523 354.93 125.133 355.664 125.914C356.414 126.695 356.984 127.609 357.375 128.656C357.766 129.703 357.961 130.836 357.961 132.055V149H351.492V134.398C351.492 133.508 351.391 132.758 351.188 132.148C350.984 131.523 350.703 131.023 350.344 130.648C350 130.258 349.586 129.977 349.102 129.805C348.633 129.617 348.117 129.523 347.555 129.523C346.898 129.523 346.281 129.641 345.703 129.875C345.141 130.109 344.648 130.469 344.227 130.953C343.805 131.422 343.477 132.016 343.242 132.734C343.008 133.453 342.891 134.297 342.891 135.266V149H336.422V123.898ZM384.727 149H378.258V146.844C377.898 147.188 377.508 147.523 377.086 147.852C376.664 148.164 376.195 148.445 375.68 148.695C375.164 148.93 374.586 149.117 373.945 149.258C373.32 149.398 372.625 149.469 371.859 149.469C370.5 149.469 369.281 149.25 368.203 148.812C367.125 148.359 366.211 147.75 365.461 146.984C364.727 146.203 364.164 145.289 363.773 144.242C363.383 143.195 363.188 142.062 363.188 140.844V123.898H369.656V138.477C369.656 139.367 369.75 140.125 369.938 140.75C370.141 141.375 370.414 141.883 370.758 142.273C371.117 142.648 371.539 142.93 372.023 143.117C372.508 143.289 373.031 143.375 373.594 143.375C374.25 143.375 374.859 143.258 375.422 143.023C376 142.789 376.5 142.438 376.922 141.969C377.344 141.484 377.672 140.883 377.906 140.164C378.141 139.445 378.258 138.602 378.258 137.633V123.898H384.727V149ZM411.492 149H405V134.398C405 133.508 404.898 132.758 404.695 132.148C404.508 131.523 404.242 131.023 403.898 130.648C403.555 130.258 403.156 129.984 402.703 129.828C402.25 129.656 401.758 129.57 401.227 129.57C400.602 129.57 400.016 129.68 399.469 129.898C398.938 130.117 398.469 130.461 398.062 130.93C397.672 131.398 397.359 132 397.125 132.734C396.906 133.453 396.797 134.312 396.797 135.312V149H390.328V123.898H396.797V126.102C397.625 125.18 398.586 124.5 399.68 124.062C400.789 123.625 401.977 123.406 403.242 123.406C404.539 123.406 405.75 123.672 406.875 124.203C408.016 124.734 408.961 125.609 409.711 126.828C410.148 126.203 410.648 125.672 411.211 125.234C411.789 124.797 412.406 124.445 413.062 124.18C413.719 123.914 414.398 123.719 415.102 123.594C415.82 123.469 416.555 123.406 417.305 123.406C418.711 123.406 419.961 123.641 421.055 124.109C422.164 124.562 423.102 125.18 423.867 125.961C424.633 126.742 425.219 127.641 425.625 128.656C426.031 129.672 426.234 130.742 426.234 131.867V149H419.695V134.398C419.695 133.508 419.594 132.758 419.391 132.148C419.203 131.523 418.938 131.023 418.594 130.648C418.25 130.258 417.844 129.984 417.375 129.828C416.922 129.656 416.43 129.57 415.898 129.57C415.273 129.57 414.695 129.68 414.164 129.898C413.633 130.117 413.164 130.461 412.758 130.93C412.367 131.398 412.055 132 411.82 132.734C411.602 133.453 411.492 134.312 411.492 135.312V149ZM455.484 136.461C455.484 138.32 455.211 140.047 454.664 141.641C454.117 143.234 453.352 144.609 452.367 145.766C451.383 146.922 450.203 147.828 448.828 148.484C447.453 149.141 445.938 149.469 444.281 149.469C443.547 149.469 442.875 149.398 442.266 149.258C441.672 149.133 441.125 148.953 440.625 148.719C440.125 148.484 439.664 148.211 439.242 147.898C438.82 147.57 438.438 147.219 438.094 146.844V149H431.625V115.391H438.094V126.055C438.797 125.32 439.664 124.695 440.695 124.18C441.727 123.664 442.977 123.406 444.445 123.406C446.102 123.406 447.602 123.742 448.945 124.414C450.305 125.07 451.469 125.984 452.438 127.156C453.406 128.312 454.156 129.688 454.688 131.281C455.219 132.875 455.484 134.602 455.484 136.461ZM437.906 138.781C437.906 139.453 438.023 140.078 438.258 140.656C438.508 141.219 438.859 141.711 439.312 142.133C439.766 142.555 440.305 142.883 440.93 143.117C441.57 143.352 442.289 143.469 443.086 143.469C444.008 143.469 444.82 143.305 445.523 142.977C446.242 142.633 446.844 142.156 447.328 141.547C447.812 140.938 448.18 140.219 448.43 139.391C448.68 138.547 448.805 137.625 448.805 136.625V136.32C448.805 135.32 448.68 134.398 448.43 133.555C448.18 132.711 447.812 131.984 447.328 131.375C446.844 130.75 446.242 130.266 445.523 129.922C444.82 129.578 444.008 129.406 443.086 129.406C442.289 129.406 441.57 129.523 440.93 129.758C440.305 129.992 439.766 130.32 439.312 130.742C438.859 131.164 438.508 131.664 438.258 132.242C438.023 132.82 437.906 133.445 437.906 134.117V138.781ZM465.211 138.688C465.32 139.438 465.555 140.125 465.914 140.75C466.289 141.375 466.758 141.914 467.32 142.367C467.883 142.805 468.531 143.148 469.266 143.398C470 143.648 470.781 143.773 471.609 143.773C472.562 143.773 473.594 143.594 474.703 143.234C475.812 142.859 476.828 142.32 477.75 141.617L480.867 146.164C479.695 147.148 478.258 147.945 476.555 148.555C474.852 149.164 473.039 149.469 471.117 149.469C469.383 149.469 467.75 149.172 466.219 148.578C464.688 147.984 463.344 147.125 462.188 146C461.047 144.875 460.141 143.508 459.469 141.898C458.812 140.289 458.484 138.477 458.484 136.461C458.484 134.617 458.773 132.898 459.352 131.305C459.945 129.711 460.766 128.328 461.812 127.156C462.875 125.984 464.141 125.07 465.609 124.414C467.078 123.742 468.703 123.406 470.484 123.406C472.141 123.406 473.68 123.711 475.102 124.32C476.523 124.914 477.758 125.758 478.805 126.852C479.852 127.93 480.672 129.227 481.266 130.742C481.859 132.258 482.156 133.93 482.156 135.758V138.688H465.211ZM470.461 129.031C469.07 129.031 467.891 129.5 466.922 130.438C465.969 131.359 465.414 132.477 465.258 133.789H475.383C475.352 132.461 474.867 131.336 473.93 130.414C472.992 129.492 471.836 129.031 470.461 129.031ZM500.391 130.18H499.711C498.789 130.18 497.906 130.273 497.062 130.461C496.234 130.648 495.5 130.992 494.859 131.492C494.219 131.977 493.703 132.648 493.312 133.508C492.938 134.367 492.75 135.469 492.75 136.812V149H486.281V123.898H492.75V126.734C493.016 126.312 493.359 125.906 493.781 125.516C494.203 125.125 494.695 124.781 495.258 124.484C495.82 124.172 496.453 123.922 497.156 123.734C497.859 123.547 498.617 123.453 499.43 123.453H500.391V130.18Z" fill="#979797"/>
</svg>
