<svg width="283" height="283" viewBox="0 0 283 283" fill="none" xmlns="http://www.w3.org/2000/svg">
<rect width="282.5" height="282.5" fill="#DEE0E2"/>
<path d="M81.7925 138.195C81.7925 135.789 82.1519 133.539 82.8707 131.445C83.605 129.336 84.6519 127.508 86.0113 125.961C87.3707 124.398 89.0191 123.172 90.9566 122.281C92.8941 121.375 95.0738 120.922 97.4957 120.922C99.2457 120.922 100.863 121.148 102.347 121.602C103.847 122.055 105.191 122.695 106.378 123.523C107.582 124.352 108.613 125.352 109.472 126.523C110.332 127.695 111.011 129.008 111.511 130.461L104.972 132.641C104.785 132.016 104.488 131.375 104.082 130.719C103.675 130.047 103.16 129.445 102.535 128.914C101.91 128.367 101.175 127.922 100.332 127.578C99.5035 127.234 98.5738 127.062 97.5425 127.062C95.9957 127.062 94.6675 127.383 93.5582 128.023C92.4644 128.648 91.566 129.484 90.8628 130.531C90.1597 131.562 89.6363 132.742 89.2925 134.07C88.9644 135.383 88.8003 136.727 88.8003 138.102V138.289C88.8003 139.68 88.9644 141.039 89.2925 142.367C89.6363 143.68 90.1597 144.852 90.8628 145.883C91.566 146.914 92.4644 147.75 93.5582 148.391C94.6675 149.016 95.9957 149.328 97.5425 149.328C98.5738 149.328 99.5035 149.156 100.332 148.812C101.175 148.469 101.91 148.031 102.535 147.5C103.16 146.953 103.675 146.352 104.082 145.695C104.488 145.039 104.785 144.398 104.972 143.773L111.511 145.93C111.011 147.383 110.332 148.695 109.472 149.867C108.613 151.039 107.582 152.047 106.378 152.891C105.191 153.719 103.847 154.359 102.347 154.812C100.863 155.25 99.2457 155.469 97.4957 155.469C95.0738 155.469 92.8941 155.023 90.9566 154.133C89.0191 153.242 87.3707 152.016 86.0113 150.453C84.6519 148.891 83.605 147.062 82.8707 144.969C82.1519 142.875 81.7925 140.617 81.7925 138.195ZM115.707 121.391H122.175V132.055C122.519 131.711 122.902 131.383 123.324 131.07C123.761 130.742 124.238 130.461 124.753 130.227C125.269 129.977 125.839 129.781 126.464 129.641C127.105 129.484 127.808 129.406 128.574 129.406C129.933 129.406 131.152 129.633 132.23 130.086C133.308 130.523 134.214 131.133 134.949 131.914C135.699 132.695 136.269 133.609 136.66 134.656C137.05 135.703 137.246 136.836 137.246 138.055V155H130.777V140.398C130.777 139.508 130.675 138.758 130.472 138.148C130.269 137.523 129.988 137.023 129.628 136.648C129.285 136.258 128.871 135.977 128.386 135.805C127.918 135.617 127.402 135.523 126.839 135.523C126.183 135.523 125.566 135.641 124.988 135.875C124.425 136.109 123.933 136.469 123.511 136.953C123.089 137.422 122.761 138.016 122.527 138.734C122.293 139.453 122.175 140.297 122.175 141.266V155H115.707V121.391ZM150.769 144.805C149.972 144.93 149.332 145.211 148.847 145.648C148.363 146.07 148.121 146.648 148.121 147.383C148.121 148.195 148.418 148.898 149.011 149.492C149.605 150.07 150.48 150.359 151.636 150.359C152.855 150.359 153.816 150.008 154.519 149.305C155.222 148.602 155.574 147.672 155.574 146.516V143.984L150.769 144.805ZM156.628 152.633C156.363 152.93 156.035 153.25 155.644 153.594C155.269 153.922 154.816 154.227 154.285 154.508C153.769 154.773 153.16 155 152.457 155.188C151.753 155.375 150.964 155.469 150.089 155.469C148.839 155.469 147.683 155.273 146.621 154.883C145.574 154.477 144.652 153.914 143.855 153.195C143.058 152.477 142.433 151.648 141.98 150.711C141.527 149.758 141.3 148.727 141.3 147.617C141.3 145.602 141.925 143.953 143.175 142.672C144.425 141.391 146.152 140.586 148.355 140.258L155.574 139.203V138.734C155.574 137.609 155.23 136.719 154.543 136.062C153.855 135.406 152.738 135.078 151.191 135.078C150.55 135.078 149.902 135.156 149.246 135.312C148.589 135.453 147.957 135.617 147.347 135.805C146.753 135.992 146.199 136.211 145.683 136.461C145.168 136.695 144.714 136.906 144.324 137.094L141.793 132.148C143.23 131.352 144.824 130.695 146.574 130.18C148.339 129.664 150.168 129.406 152.058 129.406C153.214 129.406 154.378 129.531 155.55 129.781C156.738 130.016 157.808 130.453 158.761 131.094C159.73 131.734 160.519 132.609 161.128 133.719C161.738 134.812 162.043 136.211 162.043 137.914V148.227C162.043 148.961 162.23 149.508 162.605 149.867C162.996 150.211 163.527 150.531 164.199 150.828L161.269 155.469C160.082 155.344 159.128 155.039 158.41 154.555C157.691 154.055 157.097 153.414 156.628 152.633ZM181.566 136.18H180.886C179.964 136.18 179.082 136.273 178.238 136.461C177.41 136.648 176.675 136.992 176.035 137.492C175.394 137.977 174.878 138.648 174.488 139.508C174.113 140.367 173.925 141.469 173.925 142.812V155H167.457V129.898H173.925V132.734C174.191 132.312 174.535 131.906 174.957 131.516C175.378 131.125 175.871 130.781 176.433 130.484C176.996 130.172 177.628 129.922 178.332 129.734C179.035 129.547 179.793 129.453 180.605 129.453H181.566V136.18ZM194.855 147.523C194.855 147.82 194.894 148.102 194.972 148.367C195.05 148.633 195.183 148.867 195.371 149.07C195.574 149.258 195.855 149.406 196.214 149.516C196.574 149.625 197.035 149.68 197.597 149.68C197.832 149.68 198.097 149.672 198.394 149.656C198.691 149.625 198.988 149.594 199.285 149.562C199.582 149.531 199.855 149.492 200.105 149.445C200.371 149.398 200.589 149.359 200.761 149.328L201.347 155.047C200.738 155.125 200.105 155.195 199.449 155.258C198.886 155.32 198.261 155.367 197.574 155.398C196.886 155.445 196.191 155.469 195.488 155.469C193.253 155.469 191.511 154.961 190.261 153.945C189.011 152.93 188.386 151.312 188.386 149.094V135.523H183.863V129.898H188.386V122.797L194.855 121.062V129.898H201.441V135.523H194.855V147.523Z" fill="#979797"/>
</svg>
