<svg width="300" height="300" viewBox="0 0 300 300" fill="none" xmlns="http://www.w3.org/2000/svg">
<circle cx="150" cy="150" r="150" fill="#FFF7BF"/>
<path d="M300 150C300 125.332 293.916 101.045 282.288 79.2905C270.66 57.5356 253.846 38.9842 233.336 25.2796C212.825 11.5749 189.251 3.14014 164.703 0.722291C140.154 -1.69556 115.387 1.97817 92.5975 11.4181C69.8076 20.858 49.6974 35.7727 34.0484 54.841C18.3994 73.9094 7.69463 96.5428 2.88221 120.736C-1.93021 144.93 -0.701691 169.937 6.45895 193.543C13.6196 217.148 26.4913 238.623 43.934 256.066L150 150H300Z" fill="#F6EA97"/>
<path d="M116.271 3.84131C85.0391 11.0487 56.937 28.071 36.0841 52.4132C15.2312 76.7554 2.72415 107.137 0.396155 139.106C-1.93184 171.074 6.04169 202.947 23.148 230.054C40.2543 257.16 65.5937 278.074 95.4521 289.73L150 150L116.271 3.84131Z" fill="#F3E166"/>
<circle cx="150" cy="150.001" r="77.7202" fill="white"/>
<path d="M124.107 142.109C124.928 142.109 125.596 142.045 126.111 141.916C126.627 141.775 127.025 141.559 127.307 141.266C127.588 140.973 127.775 140.598 127.869 140.141C127.975 139.672 128.027 139.104 128.027 138.436V138.031H131.016V163.238H127.922V144.729H123.018V142.109H124.107ZM141.791 160.531H154.359V163.238H137.572V160.285C139.178 159.207 140.625 158.211 141.914 157.297C143.203 156.383 144.34 155.521 145.324 154.713C146.309 153.893 147.152 153.113 147.855 152.375C148.57 151.637 149.156 150.904 149.613 150.178C150.07 149.451 150.404 148.719 150.615 147.98C150.826 147.242 150.932 146.463 150.932 145.643C150.932 144.939 150.809 144.271 150.562 143.639C150.328 143.006 149.982 142.455 149.525 141.986C149.08 141.506 148.523 141.125 147.855 140.844C147.199 140.562 146.449 140.422 145.605 140.422C144.926 140.422 144.27 140.521 143.637 140.721C143.016 140.908 142.459 141.213 141.967 141.635C141.486 142.057 141.094 142.602 140.789 143.27C140.484 143.926 140.314 144.717 140.279 145.643L137.361 145.309C137.408 144.137 137.637 143.082 138.047 142.145C138.457 141.207 139.02 140.41 139.734 139.754C140.461 139.098 141.322 138.594 142.318 138.242C143.326 137.891 144.445 137.715 145.676 137.715C146.871 137.715 147.979 137.914 148.998 138.312C150.029 138.699 150.92 139.244 151.67 139.947C152.432 140.65 153.023 141.482 153.445 142.443C153.879 143.404 154.096 144.453 154.096 145.59C154.096 146.938 153.861 148.203 153.393 149.387C152.936 150.57 152.232 151.736 151.283 152.885C150.334 154.021 149.127 155.17 147.662 156.33C146.209 157.49 144.492 158.715 142.512 160.004L141.791 160.461V160.531ZM163.236 160.531H175.805V163.238H159.018V160.285C160.623 159.207 162.07 158.211 163.359 157.297C164.648 156.383 165.785 155.521 166.77 154.713C167.754 153.893 168.598 153.113 169.301 152.375C170.016 151.637 170.602 150.904 171.059 150.178C171.516 149.451 171.85 148.719 172.061 147.98C172.271 147.242 172.377 146.463 172.377 145.643C172.377 144.939 172.254 144.271 172.008 143.639C171.773 143.006 171.428 142.455 170.971 141.986C170.525 141.506 169.969 141.125 169.301 140.844C168.645 140.562 167.895 140.422 167.051 140.422C166.371 140.422 165.715 140.521 165.082 140.721C164.461 140.908 163.904 141.213 163.412 141.635C162.932 142.057 162.539 142.602 162.234 143.27C161.93 143.926 161.76 144.717 161.725 145.643L158.807 145.309C158.854 144.137 159.082 143.082 159.492 142.145C159.902 141.207 160.465 140.41 161.18 139.754C161.906 139.098 162.768 138.594 163.764 138.242C164.771 137.891 165.891 137.715 167.121 137.715C168.316 137.715 169.424 137.914 170.443 138.312C171.475 138.699 172.365 139.244 173.115 139.947C173.877 140.65 174.469 141.482 174.891 142.443C175.324 143.404 175.541 144.453 175.541 145.59C175.541 146.938 175.307 148.203 174.838 149.387C174.381 150.57 173.678 151.736 172.729 152.885C171.779 154.021 170.572 155.17 169.107 156.33C167.654 157.49 165.937 158.715 163.957 160.004L163.236 160.461V160.531Z" fill="#0B0C0C"/>
</svg>
