<svg width="300" height="300" viewBox="0 0 300 300" fill="none" xmlns="http://www.w3.org/2000/svg">
<circle cx="150" cy="150" r="150" fill="#CCE2D8"/>
<circle cx="150" cy="150.001" r="77.7202" fill="white"/>
<path d="M121.513 150.424L122.832 138.031H137.228V140.738H125.328L124.572 147.91C125.252 147.254 126.066 146.762 127.015 146.434C127.964 146.094 128.937 145.924 129.933 145.924C131.129 145.924 132.23 146.146 133.238 146.592C134.257 147.025 135.136 147.629 135.875 148.402C136.625 149.176 137.205 150.09 137.615 151.145C138.037 152.199 138.248 153.336 138.248 154.555C138.248 155.914 138.025 157.15 137.58 158.264C137.146 159.377 136.531 160.332 135.734 161.129C134.937 161.914 133.988 162.523 132.886 162.957C131.785 163.379 130.572 163.59 129.248 163.59C128.205 163.59 127.214 163.473 126.277 163.238C125.351 162.992 124.513 162.629 123.763 162.148C123.013 161.656 122.369 161.053 121.83 160.338C121.302 159.611 120.927 158.768 120.705 157.807L123.781 157.156C123.91 157.66 124.127 158.141 124.431 158.598C124.736 159.043 125.123 159.441 125.591 159.793C126.06 160.133 126.599 160.402 127.209 160.602C127.818 160.801 128.498 160.9 129.248 160.9C130.15 160.9 130.959 160.748 131.673 160.443C132.388 160.139 132.992 159.717 133.484 159.178C133.976 158.627 134.351 157.977 134.609 157.227C134.879 156.477 135.013 155.662 135.013 154.783C135.013 153.869 134.879 153.037 134.609 152.287C134.351 151.537 133.97 150.893 133.466 150.354C132.974 149.803 132.371 149.381 131.656 149.088C130.941 148.783 130.127 148.631 129.213 148.631C128.779 148.631 128.334 148.684 127.877 148.789C127.431 148.895 126.998 149.041 126.576 149.229C126.166 149.416 125.779 149.645 125.416 149.914C125.052 150.184 124.742 150.482 124.484 150.811L121.513 150.424ZM146.738 160.531H159.306V163.238H142.519V160.285C144.125 159.207 145.572 158.211 146.861 157.297C148.15 156.383 149.287 155.521 150.271 154.713C151.255 153.893 152.099 153.113 152.802 152.375C153.517 151.637 154.103 150.904 154.56 150.178C155.017 149.451 155.351 148.719 155.562 147.98C155.773 147.242 155.879 146.463 155.879 145.643C155.879 144.939 155.755 144.271 155.509 143.639C155.275 143.006 154.929 142.455 154.472 141.986C154.027 141.506 153.47 141.125 152.802 140.844C152.146 140.562 151.396 140.422 150.552 140.422C149.873 140.422 149.216 140.521 148.584 140.721C147.963 140.908 147.406 141.213 146.914 141.635C146.433 142.057 146.041 142.602 145.736 143.27C145.431 143.926 145.261 144.717 145.226 145.643L142.308 145.309C142.355 144.137 142.584 143.082 142.994 142.145C143.404 141.207 143.966 140.41 144.681 139.754C145.408 139.098 146.269 138.594 147.265 138.242C148.273 137.891 149.392 137.715 150.623 137.715C151.818 137.715 152.925 137.914 153.945 138.312C154.976 138.699 155.867 139.244 156.617 139.947C157.379 140.65 157.97 141.482 158.392 142.443C158.826 143.404 159.043 144.453 159.043 145.59C159.043 146.938 158.808 148.203 158.339 149.387C157.882 150.57 157.179 151.736 156.23 152.885C155.281 154.021 154.074 155.17 152.609 156.33C151.156 157.49 149.439 158.715 147.459 160.004L146.738 160.461V160.531ZM172.894 160.865C173.714 160.865 174.476 160.648 175.179 160.215C175.894 159.781 176.504 159.16 177.007 158.352C177.523 157.531 177.927 156.529 178.22 155.346C178.513 154.15 178.66 152.797 178.66 151.285V150.02C178.66 148.508 178.513 147.16 178.22 145.977C177.927 144.793 177.523 143.791 177.007 142.971C176.504 142.15 175.894 141.529 175.179 141.107C174.476 140.674 173.714 140.457 172.894 140.457C172.062 140.457 171.295 140.674 170.591 141.107C169.888 141.529 169.279 142.15 168.763 142.971C168.259 143.791 167.861 144.793 167.568 145.977C167.275 147.16 167.129 148.508 167.129 150.02V151.285C167.129 152.797 167.275 154.15 167.568 155.346C167.861 156.529 168.259 157.531 168.763 158.352C169.279 159.16 169.888 159.781 170.591 160.215C171.295 160.648 172.062 160.865 172.894 160.865ZM172.894 137.715C173.972 137.715 174.945 137.885 175.812 138.225C176.679 138.564 177.441 139.033 178.097 139.631C178.765 140.217 179.334 140.92 179.802 141.74C180.283 142.561 180.675 143.451 180.98 144.412C181.285 145.361 181.507 146.369 181.648 147.436C181.789 148.502 181.859 149.58 181.859 150.67C181.859 151.76 181.789 152.838 181.648 153.904C181.507 154.959 181.285 155.967 180.98 156.928C180.675 157.877 180.283 158.762 179.802 159.582C179.334 160.391 178.765 161.094 178.097 161.691C177.441 162.289 176.679 162.758 175.812 163.098C174.945 163.426 173.972 163.59 172.894 163.59C171.816 163.59 170.843 163.426 169.976 163.098C169.109 162.758 168.341 162.289 167.673 161.691C167.017 161.094 166.449 160.391 165.968 159.582C165.5 158.762 165.113 157.877 164.808 156.928C164.504 155.967 164.281 154.959 164.14 153.904C164 152.838 163.929 151.76 163.929 150.67C163.929 149.58 164 148.502 164.14 147.436C164.281 146.369 164.504 145.361 164.808 144.412C165.113 143.451 165.5 142.561 165.968 141.74C166.449 140.92 167.017 140.217 167.673 139.631C168.341 139.033 169.109 138.564 169.976 138.225C170.843 137.885 171.816 137.715 172.894 137.715Z" fill="#0B0C0C"/>
</svg>
